<?xml version="1.0" encoding="UTF-8"?>
<svg id="Layer_1" data-name="Layer 1" xmlns="http://www.w3.org/2000/svg" viewBox="0 0 1032.6048 697.763">
  <defs>
    <style>
      .cls-1 {
        fill: #606060;
      }

      .cls-2 {
        fill: #46fa3b;
      }

      .cls-3 {
        opacity: .5;
      }
    </style>
  </defs>
  <g>
    <path class="cls-3" d="M270.2343,89.4112c3.605,4.383,3.9026,9.0026,3.6554,13.561.0074-.0042.0145-.0084.022-.0126,2.4979.7421,7.4812,1.8555,13.5483.6452,2.1096-.4209,8.1232-1.7017,13.2903-6.7097,1.2754-1.2361,10.906-10.8714,7.2258-22.0645-1.8829-5.7269-6.7386-10.3051-12.3871-12-4.7659-1.4301-8.8224-.4254-10.4515,0-6.1548,1.6072-9.7635,5.6076-12.3872,8.5161-4.3998,4.8774-6.6023,10.0715-7.7418,13.8065-.0376.0283-.0942.0712-.1367.1032,1.8496.8704,3.6276,2.0455,5.3625,4.1548Z"/>
    <path d="M270.2343,89.4112c3.605,4.383,3.9026,9.0026,3.6554,13.561.0074-.0042.0145-.0084.022-.0126,2.4979.7421,7.4812,1.8555,13.5483.6452,2.1096-.4209,8.1232-1.7017,13.2903-6.7097,1.2754-1.2361,10.906-10.8714,7.2258-22.0645-1.8829-5.7269-6.7386-10.3051-12.3871-12-4.7659-1.4301-8.8224-.4254-10.4515,0-6.1548,1.6072-9.7635,5.6076-12.3872,8.5161-4.3998,4.8774-6.6023,10.0715-7.7418,13.8065-.0376.0283-.0942.0712-.1367.1032,1.8496.8704,3.6276,2.0455,5.3625,4.1548Z"/>
    <path class="cls-1" d="M815.5568,215.2177c5.4099,1.1866,9.6726,3.42,12.7411,5.5051,1.3884-2.564,2.8407-5.6921,4.0653-9.376,3.1638-9.5172,3.017-17.2941,2.9678-18.9677-.3151-10.7133-3.9025-18.4705-5.5483-21.9355-3.2128-6.7635-6.9082-11.1619-10.3226-15.2258-5.4855-6.5288-10.5609-10.7977-13.2903-13.0322-19.0311-15.5809-35.6128-24.9032-35.6129-24.9033-39.3615-22.1292-29.2212-18.4842-67.0968-38.9677-30.3243-16.3998-51.2253-27.6345-81.0322-40.3871-13.6848-5.8549-25.9818-11.0806-43.3549-16.7742-26.6306-8.7275-49.9805-13.5707-67.7419-16.3871-17.3833-2.7564-30.3274-3.7164-34.4515-4-6.8647-.472-24.026-1.4579-44.7743,0-5.7607.4048-8.1724.7432-9.9354,1.0323-14.868,2.4376-25.437,8.221-29.8065,10.8387-8.4033,5.0342-14.6721,10.8178-19.1477,15.7867,3.7596-.5896,7.6855-.0578,11.0833,2.0198,4.01,2.452,6.5331,6.599,7.4648,11.1666,3.4694-4.5817,9.689-11.4554,19.4384-16.1989,7.1499-3.4787,12.995-4.2527,22.4517-5.4194,5.1997-.6415,17.4019-1.8741,39.871,0,7.1891.5996,16.0958,1.5729,28.6451,3.6129,13.437,2.1843,32.6589,5.2574,56,12.2581,19.4349,5.829,33.5513,11.7825,55.4839,21.0322,13.2365,5.5823,28.3466,11.9548,47.7419,21.8065,5.4315,2.7589,7.2552,3.7874,59.6129,33.8065,11.1255,6.3787,20.9622,12.0306,34.0645,20.129,25.9078,16.0135,10.9209,8.4246,35.4839,24.9032,2.432,1.6315,7.562,5.049,12.3871,11.2258,2.01,2.5731,5.269,6.826,7.2258,13.2903,2.8129,9.2925,1.1398,17.2251.3871,20.129-1.2881,4.9697-3.3711,8.6732-6.0406,12.3514,3.2805-.2967,7.0133-.2026,11.0406.6808Z"/>
    <path class="cls-1" d="M774.1781,242.6863c-7.083,4.7043-16.8007,10.2329-29.8149,13.9507-8.2233,2.3492-21.03,5.8541-36.3871,2.7097-2.5935-.531-4.4867-1.0934-5.1613-1.2903-41.532-12.1213-203.3547-37.8065-203.3549-37.8065-15.1697-2.4078-65.8312-10.4484-113.6774-19.4839-.0001,0-36.6056-6.9128-76.3871-18.4516-1.9379-.5621-7.3564-2.2672-18.1936-5.6774-6.562-2.0649-18.8179-5.9646-32.5161-12.3871-3.1469-1.4755-6.8213-3.2957-10.4517-6.9678-2.2806-2.3068-6.3472-6.4202-7.0967-12.6451-.5966-4.9543,1.2008-8.8135,3.2257-13.1613,1.9814-4.2545,4.4482-7.6786,7.4839-11.0967,3.8811-4.3702,10.8489-11.1584,22.0426-17.4068.2472-4.5583-.0504-9.178-3.6554-13.561-1.735-2.1093-3.5129-3.2844-5.3625-4.1548-4.4148,3.3269-35.084,26.9074-43.2181,50.7355-1.6794,4.9199-4.4402,13.0072-1.6775,21.9355,1.9039,6.153,5.8898,10.9559,7.6129,13.0322,3.6871,4.4431,7.3845,7.2446,9.9355,9.0323,12.4539,8.7269,26.8094,13.7637,30.9677,15.2258,34.5623,12.1525,26.7325,10.1395,38.8387,13.9355,12.0941,3.7922,24.2778,6.9153,48.6451,13.1613,9.783,2.5076,19.399,4.8919,31.4839,7.4839.0001,0,7.5319,1.6154,15.2258,3.0967,17.3954,3.3492,135.6433,24.9069,297.3226,54.2258,7.1798.9144,17.585,1.5642,29.9032-.0968,18.9491-2.5551,32.4095-9.2281,41.3225-13.7419,4.9993-2.5318,9.3246-5.0811,12.7074-7.2222,5.3517-3.3874,9.978-6.7788,13.8893-9.9094-4.8419-6.7014-13.2747-11.5596-23.6527-13.4642Z"/>
    <path class="cls-3" d="M384.2987,30.4435c-3.3977-2.0776-7.3236-2.6094-11.0833-2.0198-.0249.0276-.0532.0567-.078.0843-1.9088.4559-5.1731,1.5065-8.2581,4.129-4.238,3.6028-9.0558,10.9531-6.5807,18.5806,2.2493,6.9318,9.0515,9.5623,10.0645,9.9355,1.5127.5573,6.147,2.0166,11.3549.129,6.3145-2.2886,8.9524-7.8593,9.9355-9.9355,1.8756-3.9607,2.0963-7.6124,2.0645-9.6774.0145-.0192.031-.04.0455-.0592-.9318-4.5676-3.4548-8.7146-7.4648-11.1666Z"/>
    <path d="M384.2987,30.4435c-3.3977-2.0776-7.3236-2.6094-11.0833-2.0198-.0249.0276-.0532.0567-.078.0843-1.9088.4559-5.1731,1.5065-8.2581,4.129-4.238,3.6028-9.0558,10.9531-6.5807,18.5806,2.2493,6.9318,9.0515,9.5623,10.0645,9.9355,1.5127.5573,6.147,2.0166,11.3549.129,6.3145-2.2886,8.9524-7.8593,9.9355-9.9355,1.8756-3.9607,2.0963-7.6124,2.0645-9.6774.0145-.0192.031-.04.0455-.0592-.9318-4.5676-3.4548-8.7146-7.4648-11.1666Z"/>
    <path class="cls-3" d="M872.8471,273.8629c13.1818,6.1909,30.8292,14.6105,50.9032,30.4838,19.1427,15.1369,30.7816,29.3735,34.0646,33.4839,6.0687,7.5984,15.0774,19.0294,22.9354,36.2903,2.0198,4.4365,9.4983,21.416,12.871,45.2903,3.4103,24.1407.866,42.8965,0,48.5806-.922,6.0519-4.5277,27.3912-17.4193,52.1613-11.6648,22.413-25.1356,36.497-33.5807,45.1935-24.3667,25.092-48.4183,38.1307-64.0645,46.4516-32.399,17.2304-59.1935,24.0383-83.4193,30.1935-9.7479,2.4767-46.9077,11.5823-96.4839,14.129-26.7908,1.3762-46.7001.2974-51.7742,0-36.8773-2.1612-64.2026-8.4056-71.6129-10.1613-15.6057-3.6974-40.5801-9.7628-70.8387-24.1935-16.9744-8.0953-41.2606-19.9164-66.2903-43.5483-7.8956-7.4547-13.9403-14.2673-18.0968-19.2581,7.5316-2.5905,18.3011-7.2096,29.5161-15.5806,19.442-14.5118,28.3657-31.4488,30.1935-35.0322,2.3165-4.5417,7.9623-16.507,9.9678-33.0968,1.3813-11.4265.479-20.4067,0-24.1935-.7463-5.9012-3.2943-21.6304-13.6451-38.7097-2.0656-3.4083-9.0547-14.4818-21.871-25.3549-13.3212-11.3015-25.9087-16.4233-33.2903-19.3549-19.4917-7.7411-36.0751-8.9237-46.4517-9.5806-5.2385-.3317-12.731-.5662-21.7742,0-12.231.7657-30.6061,2.08-51.4839,11.4193-6.9664,3.1163-18.022,8.1724-29.6129,18.7742-3.8153,3.4897-13.321,12.7322-21.1935,27.5806-7.0876,13.3683-9.5922,25.1334-10.5485,30.6774-2.8013,16.2408-.9562,29.1849,0,34.5484,3.7078,20.7992,13.2712,35.443,18.871,42.7742,10.7146,14.0275,22.3489,21.485,28.3549,25.2581,15.2446,9.5767,28.7649,13.0576,37.7419,15.2903,11.1597,2.7756,28.5385,5.7325,50.129,3.871,9.1364,11.9478,21.4652,26.2763,37.5483,40.9355,7.6411,6.9647,20.1854,17.7006,36.871,28.8387,6.1844,4.1283,32.2926,21.2319,72.0968,35.7097,46.4666,16.9011,84.7776,20.4686,106.6451,22.3548,34.8558,3.0064,61.2865,1.301,80.2258,0,25.7561-1.7693,63.8188-4.605,111-18.6774,18.9299-5.6461,43.9766-13.2718,74.2258-29.9033,36.1693-19.8864,59.561-41.5333,68.4193-50.129,8.9882-8.7217,21.5355-21.0337,34.4517-40.2581,15.818-23.5435,23.1722-44.0334,25.3549-50.4194,7.5504-22.091,9.485-40.0416,10.0645-46.5483,1.3309-14.9464.6307-27.0036,0-33.9678-.9539-10.5311-3.3486-27.0754-10.1613-46.2581-2.4899-7.0109-9.6293-25.8045-24.4839-46.9355-16.3245-23.2219-33.38-37.052-42.9678-44.7097-21.2822-16.9982-40.2549-26.2019-54.4839-33-18.2451-8.7168-34.6666-14.4276-45.7742-18.2903-12.0753-4.1993-22.3917-7.3164-30-9.4839l2.5807-3.7742c.5519-.8895,1.1411-1.9031,1.7411-3.0111-3.0685-2.0851-7.3312-4.3184-12.7411-5.5051-4.0273-.8834-7.7601-.9775-11.0406-.6808-1.2609,1.7374-2.6512,3.4692-4.153,5.326-3.3708,4.1678-9.5109,11.0233-20.2581,18.7097-1.7252,1.2338-3.6992,2.6342-5.927,4.1138,10.3781,1.9047,18.8108,6.7629,23.6527,13.4642,2.4048-1.9249,4.5416-3.752,6.4033-5.4167,29.0356,6.2796,52.1469,15.3957,68.6129,23.129ZM399.9116,522.4758c-10.8752,5.0189-20.3732,6.1412-26.129,6.7742-3.9329.4324-11.3019.9901-20.5161,0-7.8301-.8414-18.6089-1.9996-30.4839-8.6129-12.3967-6.9039-19.1947-15.9694-20.8065-18.1935-8.2061-11.3235-10.2588-22.3209-11.129-27.2903-2.163-12.3521-.4064-21.9988,0-24.0968.8595-4.438,4.3619-21.2576,18.871-34.1613,7.5063-6.6758,15.2035-9.8531,19.9355-11.8065,2.3523-.971,9.0336-3.5985,18.1935-5.129,2.7606-.4612,14.1229-2.2225,29.0323,0,3.2476.4841,8.2583,1.2535,14.5161,3.2903,6.6083,2.1508,17.1757,5.7171,27.1935,15.1935,11.2279,10.6211,15.3182,22.5674,17.0322,27.7742,2.7983,8.501,3.0533,14.9415,3.0968,16.3548.2205,7.1672-1.0763,12.5813-2.0322,16.4516-.8862,3.5878-2.7854,11.0488-7.4517,18.7742-9.147,15.1436-23.2242,21.8632-29.3225,24.6774Z"/>
    <path d="M872.8471,273.8629c13.1818,6.1909,30.8292,14.6105,50.9032,30.4838,19.1427,15.1369,30.7816,29.3735,34.0646,33.4839,6.0687,7.5984,15.0774,19.0294,22.9354,36.2903,2.0198,4.4365,9.4983,21.416,12.871,45.2903,3.4103,24.1407.866,42.8965,0,48.5806-.922,6.0519-4.5277,27.3912-17.4193,52.1613-11.6648,22.413-25.1356,36.497-33.5807,45.1935-24.3667,25.092-48.4183,38.1307-64.0645,46.4516-32.399,17.2304-59.1935,24.0383-83.4193,30.1935-9.7479,2.4767-46.9077,11.5823-96.4839,14.129-26.7908,1.3762-46.7001.2974-51.7742,0-36.8773-2.1612-64.2026-8.4056-71.6129-10.1613-15.6057-3.6974-40.5801-9.7628-70.8387-24.1935-16.9744-8.0953-41.2606-19.9164-66.2903-43.5483-7.8956-7.4547-13.9403-14.2673-18.0968-19.2581,7.5316-2.5905,18.3011-7.2096,29.5161-15.5806,19.442-14.5118,28.3657-31.4488,30.1935-35.0322,2.3165-4.5417,7.9623-16.507,9.9678-33.0968,1.3813-11.4265.479-20.4067,0-24.1935-.7463-5.9012-3.2943-21.6304-13.6451-38.7097-2.0656-3.4083-9.0547-14.4818-21.871-25.3549-13.3212-11.3015-25.9087-16.4233-33.2903-19.3549-19.4917-7.7411-36.0751-8.9237-46.4517-9.5806-5.2385-.3317-12.731-.5662-21.7742,0-12.231.7657-30.6061,2.08-51.4839,11.4193-6.9664,3.1163-18.022,8.1724-29.6129,18.7742-3.8153,3.4897-13.321,12.7322-21.1935,27.5806-7.0876,13.3683-9.5922,25.1334-10.5485,30.6774-2.8013,16.2408-.9562,29.1849,0,34.5484,3.7078,20.7992,13.2712,35.443,18.871,42.7742,10.7146,14.0275,22.3489,21.485,28.3549,25.2581,15.2446,9.5767,28.7649,13.0576,37.7419,15.2903,11.1597,2.7756,28.5385,5.7325,50.129,3.871,9.1364,11.9478,21.4652,26.2763,37.5483,40.9355,7.6411,6.9647,20.1854,17.7006,36.871,28.8387,6.1844,4.1283,32.2926,21.2319,72.0968,35.7097,46.4666,16.9011,84.7776,20.4686,106.6451,22.3548,34.8558,3.0064,61.2865,1.301,80.2258,0,25.7561-1.7693,63.8188-4.605,111-18.6774,18.9299-5.6461,43.9766-13.2718,74.2258-29.9033,36.1693-19.8864,59.561-41.5333,68.4193-50.129,8.9882-8.7217,21.5355-21.0337,34.4517-40.2581,15.818-23.5435,23.1722-44.0334,25.3549-50.4194,7.5504-22.091,9.485-40.0416,10.0645-46.5483,1.3309-14.9464.6307-27.0036,0-33.9678-.9539-10.5311-3.3486-27.0754-10.1613-46.2581-2.4899-7.0109-9.6293-25.8045-24.4839-46.9355-16.3245-23.2219-33.38-37.052-42.9678-44.7097-21.2822-16.9982-40.2549-26.2019-54.4839-33-18.2451-8.7168-34.6666-14.4276-45.7742-18.2903-12.0753-4.1993-22.3917-7.3164-30-9.4839l2.5807-3.7742c.5519-.8895,1.1411-1.9031,1.7411-3.0111-3.0685-2.0851-7.3312-4.3184-12.7411-5.5051-4.0273-.8834-7.7601-.9775-11.0406-.6808-1.2609,1.7374-2.6512,3.4692-4.153,5.326-3.3708,4.1678-9.5109,11.0233-20.2581,18.7097-1.7252,1.2338-3.6992,2.6342-5.927,4.1138,10.3781,1.9047,18.8108,6.7629,23.6527,13.4642,2.4048-1.9249,4.5416-3.752,6.4033-5.4167,29.0356,6.2796,52.1469,15.3957,68.6129,23.129ZM399.9116,522.4758c-10.8752,5.0189-20.3732,6.1412-26.129,6.7742-3.9329.4324-11.3019.9901-20.5161,0-7.8301-.8414-18.6089-1.9996-30.4839-8.6129-12.3967-6.9039-19.1947-15.9694-20.8065-18.1935-8.2061-11.3235-10.2588-22.3209-11.129-27.2903-2.163-12.3521-.4064-21.9988,0-24.0968.8595-4.438,4.3619-21.2576,18.871-34.1613,7.5063-6.6758,15.2035-9.8531,19.9355-11.8065,2.3523-.971,9.0336-3.5985,18.1935-5.129,2.7606-.4612,14.1229-2.2225,29.0323,0,3.2476.4841,8.2583,1.2535,14.5161,3.2903,6.6083,2.1508,17.1757,5.7171,27.1935,15.1935,11.2279,10.6211,15.3182,22.5674,17.0322,27.7742,2.7983,8.501,3.0533,14.9415,3.0968,16.3548.2205,7.1672-1.0763,12.5813-2.0322,16.4516-.8862,3.5878-2.7854,11.0488-7.4517,18.7742-9.147,15.1436-23.2242,21.8632-29.3225,24.6774Z"/>
  </g>
  <polygon points="38.9839 49.9663 83.9355 49.9663 83.9355 60.9018 67.0484 60.9018 67 103.9663 56.0161 103.9663 55.7716 60.7177 38.9839 60.9502 38.9839 49.9663"/>
  <polygon points="96.0323 49.9663 107.8871 49.9663 107.8871 70.9663 134.0161 70.9663 134.0161 49.9663 145.9677 49.9663 145.9677 104.9341 134.0645 104.9341 134.0161 81.9502 107.9839 81.9986 108.0323 104.9341 96.0323 104.9341 96.0323 49.9663"/>
  <polygon points="159.0323 49.9663 199.0484 49.9663 199.0484 59.8857 169.0484 59.8857 169 70.9179 196.9677 70.9179 196.9677 81.8534 169.0968 81.8534 169 94.8212 199.0484 94.9663 199.0484 104.934 159.0323 104.934 159.0323 49.9663"/>
  <path class="cls-2" d="M214.8387,231.7889c-.514-5.3447-2.0208-16.6939-7.4839-30.0645-2.6593-6.5084-6.9644-16.7939-16.3871-27.5483-10.5728-12.0671-21.7252-18.0326-26.9678-20.7742-12.303-6.4339-23.1026-8.72-30-10.129-7.989-1.632-14.4238-2.1374-17.7419-2.3871-4.447-.3347-13.1774-1.0295-23.0322,0-7.2931.7619-20.4622,2.2592-35.0968,9.7419-15.6844,8.0196-25.5915,19.0995-31.0322,26.3871V45.2082L0,73.6598l.3226,264.0645,26.7742.2581v-28.7742c5.7549,7.2538,17.1117,19.5792,35.2903,27.9355,27.4254,12.6068,52.813,8.106,65.4194,5.871,9.2385-1.6379,27.3329-5.0474,46.129-18.2581,5.8881-4.1384,18.0489-12.8745,27.6774-28.9033,10.6677-17.7587,12.3893-34.751,13.2258-44,.8754-9.6801.2797-17.155,0-20.0645ZM182.4516,263.0147c-3.127,12.6006-8.5811,20.9996-9.871,22.9355-5.2935,7.9449-11.0414,12.9846-14.0322,15.3871-10.4396,8.3861-20.632,11.4277-26.3226,13.0645-11.1781,3.2152-20.1596,3.2568-27.3871,3.2903-5.1478.0239-12.0297.019-20.9032-1.7419-5.262-1.0443-15.2419-3.1138-26.3226-9.6774-3.8819-2.2994-8.9337-5.2919-13.9355-10.6451-9.0206-9.6544-11.6809-20.3539-13.8387-29.0323-4.1432-16.6637-2.549-30.1072-1.6451-37.1613,1.2551-9.7959,2.9343-21.7906,11.4194-33.5807.2163-.3006,1.9972-2.7614,4.2581-5.2258,13.282-14.478,37.3753-22.8126,60.3871-22.8387,8.3979-.0096,25.036.1757,42.7742,10.1613,5.4574,3.0722,19.5601,11.2509,28.7419,28.1613,5.3301,9.8167,6.8427,18.599,7.7419,24.0967,2.718,16.6167-.2383,29.4772-1.0645,32.8065Z"/>
  <path class="cls-2" d="M466.871,219.6598c-6.2451-26.2913-21.2235-42.3463-25.4516-46.6451-11.2614-11.4497-22.6674-17.1869-28.8387-20.2258-4.7421-2.3351-17.9712-8.4397-36.3871-10.9355-2.2057-.2989-11.1047-1.4431-25.3548-.7742-19.6766.9236-37.8688,1.7775-57.7742,11.7097-21.728,10.8415-33.7567,26.6415-36.7742,30.7742-4.5214,6.1924-15.4571,22.6833-18.3871,46.5484-.3207,2.6125-1.3483,11.8518,0,24,1.098,9.8936,3.9744,33.049,21.2903,53.8064,11.2872,13.5305,23.7388,20.0833,31.7419,24.1936,20.7223,10.6427,39.8837,12.309,50.9033,13.1613,10.4442.8077,18.7463.3401,23.0322,0,18.2858-1.4512,31.5558-5.9868,34.3549-6.9677,9.2508-3.2418,24.0004-8.5768,38.4194-21.7742,16.4894-15.0925,24.0011-32.6462,27.3871-43.4516,7.482-23.8766,4.0297-44.1957,1.8387-53.4194ZM437.6452,254.5953c-2.3582,17.0209-10.007,28.4917-11.7097,30.9678-1.6911,2.4592-9.1813,13.0082-23.2258,21.1935-10.5844,6.1687-19.8323,8.0466-27.3871,9.5806-4.8625.9874-16.2424,2.9544-30.9677,1.8387-9.7087-.7356-22.256-1.6863-36.3871-9-4.7967-2.4825-15.0408-7.9232-24-19.3549-10.2703-13.1046-12.801-26.3607-13.9355-32.7097-3.0942-17.3157.393-30.9006,1.2581-34.0645,1.7181-6.2842,8.4419-27.6032,28.8387-41.3226,11.7206-7.8835,23.6257-10.3451,31.1613-11.9032,8.4287-1.7427,15.5343-2.0987,20.129-2.129,4.3262-.0286,15.1656.1739,28.6451,3.871,9.3663,2.5689,19.7896,5.4277,30.6774,13.9355,3.1372,2.4514,10.9505,8.9956,17.4194,20.0322,1.3631,2.3256,7.4632,13.0345,9.4839,28.6452,1.2978,10.0262.3611,17.8126,0,20.4193Z"/>
  <path class="cls-2" d="M711.0323,312.9502c-3.2736.5256-8.1947,1.0935-14.4194.9677-1.592-.0322-2.0421-.0849-2.4678-.1935-6.9165-1.7649-8.6446-18.5961-9.1451-27v-94.6451c-.8567-4.1396-2.4528-9.8479-5.6129-16.129-1.6012-3.1825-4.5149-8.8684-9.871-14.3549-3.803-3.8956-8.9412-7.797-18.5806-11.9032-3.2917-1.4022-15.4138-6.3663-37.8387-8.8195-22.733-2.4868-39.9557-.6323-45.1936,0-9.3235,1.1255-20.2132,2.4871-33.5806,7.6581-7.9747,3.085-15.0334,5.8854-22.7419,12.2903,0,0-9.9868,8.2979-17.8065,23.9032-.6647,1.3264-2.7097,4.6774-2.8812,9.1587-.0048.1254-.0223.9078-.022,3.9058,0,.5513,0,4.1053,0,4.6452l29.9032.4516c.6282-3.9827,2.1923-10.1328,6.4517-16.2581,1.1993-1.7247,3.6082-5.1277,7.871-8.2581,3.4521-2.5351,6.5543-3.7415,10.4516-5.2258,4.1702-1.5883,7.6775-2.4734,10.7742-3.1613,11.6874-2.5961,21.4297-3.2495,23.0968-3.3549,3.1494-.199,12.9967-.7194,25.9355.6451,9.2783.9785,15.4638,1.6744,23.3548,4.6451,5.5217,2.0787,10.764,4.117,15.7419,9.1613,4.3701,4.4283,6.1934,8.7991,8.3226,13.9033,3.0994,7.4299,2.5807,13.1935,2.5807,16.9354,0,2.6712.121,4.288-.3549,4.8871-.6473.8151-1.4515,1.4515-1.4516,1.4516-.988.782-1.9642,1.2104-2.6613,1.4516l-65.4677-.0484c-10.8271.1605-19.8502,1.0336-26.4678,1.8871-20.7595,2.6776-33.0882,7.1286-36.0484,8.2258-11.3027,4.1893-16.2005,7.733-18.3871,9.4355-6.915,5.3841-10.8813,11.1703-12.5322,13.7903-6.0585,9.615-7.3765,18.5535-7.9355,22.6451-1.0244,7.4988-.3882,13.4536,0,16.2097,1.3,9.2298,4.4858,15.7228,5.3226,17.371.8305,1.6359,4.6909,9.0251,12.9194,16.3549,9.34,8.3199,18.7518,11.614,26.0322,14.0806,16.2753,5.5142,29.7687,5.4335,40.2097,5.371,15.2668-.0914,26.6647-2.4686,30.9193-3.4355,5.123-1.1642,13.1722-3.0354,22.5-7.2097,7.8689-3.5214,20.3221-10.3262,32.8065-23.371.3944,3.478,1.6317,10.0797,6.2419,16.7419,6.6523,9.6133,15.9839,13.0757,19.2097,14.1114l19.9839-.0308c.58.0432,1.1291.0388,1.6451,0,5.1414-.387,8.6925-4.322,10.1613-6.1935l-.9677-22.6935ZM653.9355,268.8212c-.3848,2.264-1.0975,5.4998-2.5161,9.1935-5.9552,15.5064-18.4528,23.73-23.4194,26.9032-6.1517,3.9304-11.3333,5.8049-17.7581,8.1291-5.0385,1.8228-12.2872,4.3966-22.2097,5.6129-9.9713,1.2222-17.7806.4775-22.5,0-3.0287-.3065-7.4502-.77-13.1129-2.129-8.8616-2.1269-15.9693-3.8328-22.6935-9.4355-2.2493-1.8741-8.1977-6.965-11.0323-15.9193-.8384-2.6484-3.5601-11.7166.6774-21.3871,2.8042-6.3995,7.3124-9.9966,9.8226-11.9516,5.9453-4.6304,12.0028-6.2355,17.3226-7.6451,5.3983-1.4304,9.6448-1.8604,11.4194-2.0323,11.6771-1.1313,27.1249-2.5954,45.5322-4.2097h50.4678v24.871Z"/>
  <path class="cls-2" d="M732.8065,98.934v46.0161h-34.6935v24.9677l34.6935.1936.2419,129.629c.3995,7.3557,2.0311,13.1187,3.3871,16.8871,1.5137,4.2067,3.0872,8.5793,7.0161,13.1613.7789.9083,4.253,4.86,10.2097,8.0807,4.4612,2.412,8.564,3.4673,11.371,3.9677h43.7419c1.0519-.0702,2.5109-.2946,4.1129-.9677.8895-.3737,1.6309-.805,2.2258-1.2097v-26.6129c-7.2804,1.1991-13.3654,1.6536-17.7097,1.8387-14.5139.6185-18.2682-1.3998-19.6451-2.2258-5.4127-3.247-8.0797-8.46-8.5161-9.3387-1.3942-2.8069-1.9412-5.3739-2.1774-7.1129l-.0968-126.1935,51.9194-.0484v-24.9677l-51.871-.0484-.0484-72.9194-34.1613,26.9032Z"/>
  <path d="M217.8794,445.0564c-1.3203-6.7421-4.342-21.3662-15.0968-36.7742-2.2794-3.2656-9.5875-13.2733-22.4517-22.4517-12.9054-9.2079-25.0853-13.074-31.3548-14.7097-9.1638-2.3907-17.1247-2.9968-22.8387-3.0645H.8148l-.0323,192.0322,123.0323.0323c6.5149.1763,15.957-.2238,26.8387-3.0968,24.6721-6.514,39.5255-21.1943,42.7419-24.4838,18.2738-18.6886,22.8331-39.8185,24.4839-48,1.1884-5.8898,3.6488-20.8508,0-39.4839ZM167.8471,480.8629c-1.5389,6.038-4.8864,18.501-15.871,28.7419-.943.8792-5.6222,5.1727-13.1613,8.9032-10.8333,5.3606-20.8501,6.2324-26.6129,6.2903H45.9116l-.0968-119.8065h78.0968c3.4174.7356,8.2109,2.0723,13.5483,4.6451,3.9167,1.8881,13.1641,6.475,20.7097,16.4516,6.3118,8.3453,8.347,16.3817,9.6774,21.871,3.951,16.3026.8536,29.554,0,32.9033Z"/>
  <path d="M683.718,489.0241h51.2258c-.5825,4.9377-1.8678,11.7397-4.9032,19.3549-.663,1.6633-2.7855,6.8177-6.7097,13.0323-1.2426,1.9678-7.1721,11.1785-18.1935,20.6451-4.2341,3.6368-12.9634,10.527-25.6775,16.129-14.4575,6.3702-26.4664,7.7254-36.9032,8.9032-3.6132.4077-17.5363,1.852-35.7419,0-6.3689-.6479-13.2827-1.3512-22.1936-3.7419-18.2388-4.8932-30.6752-13.0539-34.0645-15.3549-16.1704-10.9778-25.1404-23.4885-27.871-27.4839-8.6193-12.6115-12.2217-23.9987-13.2903-27.6129-7.4481-25.1895-2.2668-46.3299,0-55.0967,1.5203-5.8798,4.3318-16.3948,11.871-28,4.8456-7.4589,9.7281-12.4187,13.5483-16.2581,4.0541-4.0743,11.9276-11.8791,24.2581-18.9678,14.1062-8.1095,26.5051-10.947,33.0322-12.3871,11.6719-2.5751,21.5671-2.9726,27.871-3.2258,7.2799-.2924,12.875-.09,14.9678,0,6.196.2665,17.293.7999,30.8387,4.129,8.8947,2.186,18.0736,4.4419,28.9032,10.7097,4.8629,2.8145,14.2415,8.8588,23.0968,19.2258,3.1375,3.673,8.1842,9.6745,12,18.7097,1.6814,3.9813,2.6663,7.4681,3.3549,9.9355,2.3962,8.5855,2.5729,12.7966,2.7096,15.3548l-53.2903.1291c-1.7045-4.8574-5.2859-13.0059-12.7742-20.6452-10.6589-10.874-22.7678-14.1203-28.129-15.4839-14.3306-3.6448-25.9823-1.3109-32.7742.1291-5.2876,1.121-12.6627,2.7503-21.0323,7.7419-12.4908,7.4494-18.7856,17.3713-20.5161,20.2581-5.166,8.618-6.6998,16.3383-7.6129,21.1613-.9503,5.0193-2.1849,14.4771-.129,26.0645,1.0021,5.6477,2.6207,14.2685,8.6451,23.6129,1.4369,2.2288,7.6396,11.5023,19.6129,18.5806,10.7916,6.3798,20.7148,7.6917,27.4839,8.5161,3.6013.4386,10.2277,1,18.4517.1291,6.6903-.7085,15.3046-1.6207,24.2581-6.8387,4.3123-2.5131,7.9767-5.6017,9.6348-6.9991,3.6719-3.0947,6.0046-5.6127,8.1716-7.9686,3.1056-3.3763,4.1963-5.0099,5.0323-6.5807,1.276-2.3974,1.8784-4.4972,2.1217-5.4384.4385-1.6964.6317-3.1946.7169-4.3681Z"/>
  <path d="M754.5568,494.8306h54.7097c.5756,3.9476,2.382,12.3061,9.1613,19.4839,3.5936,3.8049,7.2028,5.8149,9.5483,7.0968,2.1246,1.1611,8.3541,4.3486,23.6129,6.0645,15.2983,1.7204,26.4623.4761,30.1936,0,13.0453-1.6644,17.9935-4.4958,20.6451-6.3226,2.246-1.5474,6.1146-4.2815,8.6451-9.4017.6677-1.3511,4.7795-9.671.9032-16.9209-1.8917-3.5381-4.8644-5.2848-8.3871-7.3548-3.9143-2.3001-7.6599-3.5335-13.1613-4.7742-9.0452-2.0399-13.6794-2.0342-28.9032-3.871-1.6768-.2023.0547-.0002-10.9678-1.4193-25.3126-3.2588-24.2096-3.0068-26.9678-3.4839-11.7955-2.0405-19.5275-4.4979-28.5161-7.3549-2.9331-.9323-7.6241-2.4885-13.1613-5.5484-2.1665-1.1973-4.9296-2.7427-8.129-5.4193-4.2339-3.5421-6.7506-6.9891-8.129-8.9033-1.4462-2.0082-3.6837-5.1573-5.5485-9.8065-.3777-.9417-1.624-4.1486-2.4515-8.7742-.4463-2.4949-1.6301-10.2061.2581-20,2.1387-11.0928,7.0084-18.5828,8.129-20.2581,6.4333-9.618,14.3011-14.4749,18.0645-16.7419,5.9022-3.5556,10.7864-5.1237,17.0323-7.129,5.8225-1.8694,13.397-3.8349,23.6128-5.1846,16.7046-2.207,29.2467-1.2845,46.7097,0,18.0979,1.3312,25.4016,3.1478,28.6451,4.0233,4.2933,1.1589,12.215,3.5687,21.2904,8.2903,3.9314,2.0453,7.7161,4.0424,12.129,7.7097,5.9863,4.9747,9.4569,9.9714,10.7096,11.871,3.874,5.8746,5.5608,11.0054,6.7097,14.5807,1.3503,4.2019,2.8536,10.2759,3.2258,17.8064h-50.9678c-.5142-3.4269-2.0519-10.3485-7.4839-16.6451-4.6458-5.3852-9.8564-7.666-14.4515-9.6774-8.1694-3.576-15.1456-4.1889-21.8065-4.7742-2.4727-.2173-9.0264-.6921-17.4193.129-7.9863.7814-13.3555,2.3171-15.0968,2.8387-4.173,1.2498-6.8177,2.0656-9.9354,4.1613-2.6097,1.7543-6.6433,4.4657-8.2582,9.6451-1.2183,3.9074-.4877,7.3837,0,9.0323,2.1066,7.1205,8.6274,10.379,10.8387,11.4839,2.743,1.3707,5.3402,1.9684,8,2.5806,2.7385.6303,4.0806.6896,8.2581,1.2903,4.0988.5894,4.8229.8221,9.9355,1.6774,4.4341.7417,7.9525,1.2463,13.9354,2.0645,26.1608,3.5778,30.9479,3.7856,42.3226,6.0216,11.6339,2.2869,18.2566,4.3558,23.3549,6.2365,3.0569,1.1276,9.5818,3.6691,16.9032,8.3871,4.6033,2.9664,6.6387,4.9355,7.6129,5.9355,3.8781,3.9803,5.8461,7.9009,7.3549,10.9677,1.0938,2.2232,3.1072,6.7084,4.3871,12.7742.6664,3.1578,2.2668,12.1128,0,23.3548-2.1772,10.798-6.788,18.0794-7.871,19.7419-4.9653,7.6219-10.5393,11.8938-15.4839,15.6129-11.074,8.3294-21.4948,11.8198-28.3871,14.0645-2.8923.942-12.3486,3.8917-24.7742,5.1613-6.2012.6336-12.2351.756-19.4839.9032-3.6451.074-8.134.1651-13.5485.0363-6.0005-.1428-14.6799-.3493-24.9032-1.9717-7.8641-1.248-17.0477-2.7054-28.129-7.6129-11.2393-4.9774-18.4368-10.8494-20.129-12.2581-7.9271-6.5984-12.4974-13.0126-13.6774-14.7097-2.946-4.2373-7.0562-10.266-9.2904-19.2258-1.5724-6.3057-1.6417-11.7613-1.4193-15.4839Z"/>
</svg>